<?xml version="1.0" encoding="UTF-8"?>
<svg width="256px" height="34px" viewBox="0 0 256 34" version="1.1" xmlns="http://www.w3.org/2000/svg" xmlns:xlink="http://www.w3.org/1999/xlink">
    <title>Group</title>
    <g id="Page-1" stroke="none" stroke-width="1" fill="none" fill-rule="evenodd">
        <g id="Artboard" transform="translate(-137.000000, -216.000000)" fill="#7ACC78">
            <g id="Group" transform="translate(137.000000, 216.000000)">
                <path d="M66.477,12.486 L71.859,12.486 L71.859,17.166 L66.633,17.166 L66.633,33 L60.549,33 L60.549,17.166 L57.312,17.166 L57.312,12.486 L60.549,12.486 L60.549,11.55 C60.549,9.158 61.251,7.26 62.655,5.856 C64.085,4.452 66.087,3.75 68.661,3.75 C69.571,3.75 70.429,3.854 71.235,4.062 C72.067,4.244 72.756,4.517 73.302,4.881 L71.703,9.288 C71.001,8.794 70.182,8.547 69.246,8.547 C67.4,8.547 66.477,9.561 66.477,11.589 L66.477,12.486 Z M83.8241,14.787 C84.5521,13.773 85.5271,13.006 86.7491,12.486 C87.9971,11.966 89.4271,11.706 91.0391,11.706 L91.0391,17.322 C90.3631,17.27 89.9081,17.244 89.6741,17.244 C87.9321,17.244 86.5671,17.738 85.5791,18.726 C84.5911,19.688 84.0971,21.144 84.0971,23.094 L84.0971,33 L78.0131,33 L78.0131,12.018 L83.8241,12.018 L83.8241,14.787 Z M115.947,12.018 L115.947,33 L110.175,33 L110.175,30.504 C109.369,31.414 108.407,32.116 107.289,32.61 C106.171,33.078 104.962,33.312 103.662,33.312 C100.906,33.312 98.722,32.519 97.11,30.933 C95.498,29.347 94.692,26.994 94.692,23.874 L94.692,12.018 L100.776,12.018 L100.776,22.977 C100.776,26.357 102.193,28.047 105.027,28.047 C106.483,28.047 107.653,27.579 108.537,26.643 C109.421,25.681 109.863,24.264 109.863,22.392 L109.863,12.018 L115.947,12.018 Z M121.583,12.018 L127.667,12.018 L127.667,33 L121.583,33 L121.583,12.018 Z M124.625,9.093 C123.507,9.093 122.597,8.768 121.895,8.118 C121.193,7.468 120.842,6.662 120.842,5.7 C120.842,4.738 121.193,3.932 121.895,3.282 C122.597,2.632 123.507,2.307 124.625,2.307 C125.743,2.307 126.653,2.619 127.355,3.243 C128.057,3.867 128.408,4.647 128.408,5.583 C128.408,6.597 128.057,7.442 127.355,8.118 C126.653,8.768 125.743,9.093 124.625,9.093 Z M146.847,31.986 C146.249,32.428 145.508,32.766 144.624,33 C143.766,33.208 142.856,33.312 141.894,33.312 C139.398,33.312 137.461,32.675 136.083,31.401 C134.731,30.127 134.055,28.255 134.055,25.785 L134.055,17.166 L130.818,17.166 L130.818,12.486 L134.055,12.486 L134.055,7.377 L140.139,7.377 L140.139,12.486 L145.365,12.486 L145.365,17.166 L140.139,17.166 L140.139,25.707 C140.139,26.591 140.36,27.28 140.802,27.774 C141.27,28.242 141.92,28.476 142.752,28.476 C143.714,28.476 144.533,28.216 145.209,27.696 L146.847,31.986 Z M173.709,11.706 C175.659,11.706 177.427,12.161 179.013,13.071 C180.625,13.955 181.886,15.216 182.796,16.854 C183.706,18.466 184.161,20.351 184.161,22.509 C184.161,24.667 183.706,26.565 182.796,28.203 C181.886,29.815 180.625,31.076 179.013,31.986 C177.427,32.87 175.659,33.312 173.709,33.312 C170.823,33.312 168.626,32.402 167.118,30.582 L167.118,33 L161.307,33 L161.307,4.062 L167.391,4.062 L167.391,14.241 C168.925,12.551 171.031,11.706 173.709,11.706 Z M172.656,28.32 C174.216,28.32 175.49,27.8 176.478,26.76 C177.492,25.694 177.999,24.277 177.999,22.509 C177.999,20.741 177.492,19.337 176.478,18.297 C175.49,17.231 174.216,16.698 172.656,16.698 C171.096,16.698 169.809,17.231 168.795,18.297 C167.807,19.337 167.313,20.741 167.313,22.509 C167.313,24.277 167.807,25.694 168.795,26.76 C169.809,27.8 171.096,28.32 172.656,28.32 Z M198.218,33.312 C196.008,33.312 194.019,32.857 192.251,31.947 C190.509,31.011 189.144,29.724 188.156,28.086 C187.168,26.448 186.674,24.589 186.674,22.509 C186.674,20.429 187.168,18.57 188.156,16.932 C189.144,15.294 190.509,14.02 192.251,13.11 C194.019,12.174 196.008,11.706 198.218,11.706 C200.428,11.706 202.404,12.174 204.146,13.11 C205.888,14.02 207.253,15.294 208.241,16.932 C209.229,18.57 209.723,20.429 209.723,22.509 C209.723,24.589 209.229,26.448 208.241,28.086 C207.253,29.724 205.888,31.011 204.146,31.947 C202.404,32.857 200.428,33.312 198.218,33.312 Z M198.218,28.32 C199.778,28.32 201.052,27.8 202.04,26.76 C203.054,25.694 203.561,24.277 203.561,22.509 C203.561,20.741 203.054,19.337 202.04,18.297 C201.052,17.231 199.778,16.698 198.218,16.698 C196.658,16.698 195.371,17.231 194.357,18.297 C193.343,19.337 192.836,20.741 192.836,22.509 C192.836,24.277 193.343,25.694 194.357,26.76 C195.371,27.8 196.658,28.32 198.218,28.32 Z M246.914,12.018 L239.309,33 L233.459,33 L228.74,19.974 L223.865,33 L218.015,33 L210.449,12.018 L216.182,12.018 L221.135,26.214 L226.283,12.018 L231.431,12.018 L236.423,26.214 L241.532,12.018 L246.914,12.018 Z M249.743,4.062 L255.827,4.062 L255.827,33 L249.743,33 L249.743,4.062 Z" id="Shape" fill-rule="nonzero"></path>
                <path d="M38.4781,6.55078 C39.7828,6.78793 40.8529,7.49887 41.6894,8.68359 C42.4254,9.73324 42.9272,11.0536 43.1945,12.6445 C43.2136,12.763 43.231,12.8815 43.2468,13 L28.4648,13 C28.4648,10.1538 26.7967,7.74604 24.5009,6.94779 C24.8849,6.76245 25.295,6.63011 25.7315,6.55078 C26.5343,6.4152 27.638,6.53402 29.0432,6.90625 C30.2474,7.24496 31.2678,7.65121 32.1043,8.125 C32.9408,7.65121 33.9611,7.24496 35.1653,6.90625 C36.571,6.53402 37.6753,6.4152 38.4781,6.55078 Z" id="Path" fill-rule="nonzero"></path>
                <path d="M35.718,4.46875 C35.2497,4.90902 34.6303,5.23047 33.8611,5.43359 C33.3256,5.6027 32.7408,5.6875 32.1048,5.6875 L31.3522,5.63672 C31.2854,5.16293 31.2854,4.62109 31.3522,4.01172 C31.4863,2.79297 31.8707,1.86215 32.5062,1.21875 C32.9744,0.778478 33.5939,0.457031 34.363,0.253906 C34.8986,0.0848033 35.4833,0 36.1194,0 L36.8719,0.0507812 L36.9222,0.8125 C36.9222,1.4559 36.8383,2.04801 36.6715,2.58984 C36.471,3.36832 36.1535,3.99496 35.718,4.46875 Z" id="Path" fill-rule="nonzero"></path>
                <path d="M24.1471,8.68359 C23.3106,7.49887 22.2405,6.78793 20.9358,6.55078 C20.133,6.4152 19.0288,6.53402 17.6231,6.90625 C16.4188,7.24496 15.3985,7.65121 14.562,8.125 C13.7255,7.65121 12.7052,7.24496 11.501,6.90625 C10.0958,6.53402 8.99203,6.4152 8.18921,6.55078 C6.8845,6.78793 5.81441,7.49887 4.97793,8.68359 C4.24193,9.73324 3.74005,11.0536 3.47278,12.6445 C3.45368,12.763 3.43626,12.8815 3.4205,13 L25.7045,13 C25.6888,12.8815 25.6714,12.763 25.6523,12.6445 C25.385,11.0536 24.8831,9.73324 24.1471,8.68359 Z" id="Path" fill-rule="nonzero"></path>
                <path d="M16.3189,5.43359 C17.088,5.23047 17.7075,4.90902 18.1757,4.46875 C18.6113,3.99496 18.9288,3.36832 19.1292,2.58984 C19.296,2.04801 19.3799,1.4559 19.3799,0.8125 L19.3297,0.0507812 L18.5771,0 C17.9411,0 17.3563,0.0848033 16.8208,0.253906 C16.0516,0.457031 15.4322,0.778478 14.9639,1.21875 C14.3284,1.86215 13.9441,2.79297 13.8099,4.01172 C13.7431,4.62109 13.7431,5.16293 13.8099,5.63672 L14.5625,5.6875 C15.1985,5.6875 15.7833,5.6027 16.3189,5.43359 Z" id="Path" fill-rule="nonzero"></path>
                <path d="M0,16 C0,15.2636 0.59275,14.6667 1.32394,14.6667 L45.6761,14.6667 C46.4072,14.6667 47,15.2636 47,16 L47,21.6667 C47,22.403 46.4072,23 45.6761,23 L1.32394,23 C0.59275,23 0,22.403 0,21.6667 L0,16 Z M3.64084,18.6667 C3.64084,19.219 3.19628,19.6667 2.64789,19.6667 C2.09949,19.6667 1.65493,19.219 1.65493,18.6667 C1.65493,18.1144 2.09949,17.6667 2.64789,17.6667 C3.19628,17.6667 3.64084,18.1144 3.64084,18.6667 Z M44.3521,19.6667 C44.9005,19.6667 45.3451,19.219 45.3451,18.6667 C45.3451,18.1144 44.9005,17.6667 44.3521,17.6667 C43.8037,17.6667 43.3592,18.1144 43.3592,18.6667 C43.3592,19.219 43.8037,19.6667 44.3521,19.6667 Z" id="Shape"></path>
                <path d="M0,26 C0,25.2636 0.59275,24.6667 1.32394,24.6667 L45.6761,24.6667 C46.4072,24.6667 47,25.2636 47,26 L47,31.6667 C47,32.403 46.4072,33 45.6761,33 L1.32394,33 C0.592751,33 0,32.403 0,31.6667 L0,26 Z M3.64084,28.6667 C3.64084,29.219 3.19628,29.6667 2.64789,29.6667 C2.09949,29.6667 1.65493,29.219 1.65493,28.6667 C1.65493,28.1144 2.09949,27.6667 2.64789,27.6667 C3.19628,27.6667 3.64084,28.1144 3.64084,28.6667 Z M44.3521,29.6667 C44.9005,29.6667 45.3451,29.219 45.3451,28.6667 C45.3451,28.1144 44.9005,27.6667 44.3521,27.6667 C43.8037,27.6667 43.3592,28.1144 43.3592,28.6667 C43.3592,29.219 43.8037,29.6667 44.3521,29.6667 Z" id="Shape"></path>
            </g>
        </g>
    </g>
</svg>